ffmpeg started on 2026-04-01 at 13:00:45
Report written to "D:\Convert\FFMetrics\reports\ssim_report-6.txt"
Log level: 32
Command line:
ffmpeg -hide_banner -nostdin -r 24000/1001 -i "F:\\Convert\\files\\[DC] Make Heroine ga Oosugiru - 07_Telegram_HEVC(296).mkv" -r 24000/1001 -i "F:\\Convert\\files\\[DC] Make Heroine ga Oosugiru - 07_Telegram.mp4" -lavfi "[0:v]settb=AVTB,setpts=PTS-STARTPTS,format=pix_fmts=yuv420p10le,fps=24000/1001,scale=1920:1080:flags=lanczos:param0=3:out_range=limited:out_color_matrix=bt709:out_chroma_loc=left,setsar=1/1,setdar=(1920/1080)*(1/1),colorspace=format=yuv420p10:range=tv:primaries=bt709:trc=bt709:space=bt709:fast=0[main];[1:v]settb=AVTB,setpts=PTS-STARTPTS,format=pix_fmts=yuv420p,fps=24000/1001,scale=1920:1080:flags=lanczos:param0=3:out_range=limited:out_color_matrix=bt709:out_chroma_loc=left,setsar=1/1,setdar=(1920/1080)*(1/1),colorspace=format=yuv420p:range=tv:primaries=bt709:trc=bt709:space=bt709:fast=0[ref];[main][ref]ssim=eof_action=endall:stats_file='D\\:/Convert/FFMetrics/logs/ssim_logfile-6.txt'" -f null -
Input #0, matroska,webm, from 'F:\Convert\files\[DC] Make Heroine ga Oosugiru - 07_Telegram_HEVC(296).mkv':
  Metadata:
    COMPATIBLE_BRANDS: isomiso2avc1mp41
    MAJOR_BRAND     : isom
    MINOR_VERSION   : 512
    ENCODER         : Lavf61.7.100
  Duration: 00:24:06.79, start: -0.021000, bitrate: 946 kb/s
  Stream #0:0: Video: hevc (Main 10), yuv420p10le(tv, bt709, progressive), 1920x1080 [SAR 1:1 DAR 16:9], 23.98 fps, 23.98 tbr, 1k tbn (default)
      Metadata:
        HANDLER_NAME    : VideoHandler
        VENDOR_ID       : [0][0][0][0]
        ENCODER         : Lavc61.19.100 libx265
        BPS             : 749083
        DURATION        : 00:24:06.569708333
        NUMBER_OF_FRAMES: 34683
        NUMBER_OF_BYTES : 135450043
        _STATISTICS_WRITING_APP: mkvpropedit v94.0 ('Initiate') 64-bit
        _STATISTICS_WRITING_DATE_UTC: 2026-03-31 07:31:26
        _STATISTICS_TAGS: BPS DURATION NUMBER_OF_FRAMES NUMBER_OF_BYTES
  Stream #0:1: Audio: aac (LC), 48000 Hz, stereo, fltp (default)
      Metadata:
        HANDLER_NAME    : SoundHandler
        VENDOR_ID       : [0][0][0][0]
        ENCODER         : Lavc61.19.100 aac
        BPS             : 193194
        DURATION        : 00:24:06.784000000
        NUMBER_OF_FRAMES: 67819
        NUMBER_OF_BYTES : 34938755
        _STATISTICS_WRITING_APP: mkvpropedit v94.0 ('Initiate') 64-bit
        _STATISTICS_WRITING_DATE_UTC: 2026-03-31 07:31:26
        _STATISTICS_TAGS: BPS DURATION NUMBER_OF_FRAMES NUMBER_OF_BYTES
Input #1, mov,mp4,m4a,3gp,3g2,mj2, from 'F:\Convert\files\[DC] Make Heroine ga Oosugiru - 07_Telegram.mp4':
  Metadata:
    major_brand     : isom
    minor_version   : 512
    compatible_brands: isomiso2avc1mp41
    encoder         : Lavf60.16.100
  Duration: 00:24:06.74, start: 0.000000, bitrate: 3764 kb/s
  Stream #1:0[0x1](und): Video: h264 (High) (avc1 / 0x31637661), yuv420p(tv, bt709, progressive), 1920x1080 [SAR 1:1 DAR 16:9], 3616 kb/s, 23.98 fps, 23.98 tbr, 24k tbn (default)
      Metadata:
        handler_name    : VideoHandler
        vendor_id       : [0][0][0][0]
        encoder         : Lavc60.31.102 h264_qsv
  Stream #1:1[0x2](und): Audio: aac (HE-AACv2) (mp4a / 0x6134706D), 48000 Hz, stereo, fltp, 144 kb/s (default)
      Metadata:
        handler_name    : SoundHandler
        vendor_id       : [0][0][0][0]
Stream mapping:
  Stream #0:0 (hevc) -> settb:default
  Stream #1:0 (h264) -> settb:default
  ssim:default -> Stream #0:0 (wrapped_avframe)
  Stream #0:1 -> #0:1 (aac (native) -> pcm_s16le (native))
Output #0, null, to 'pipe:':
  Metadata:
    COMPATIBLE_BRANDS: isomiso2avc1mp41
    MAJOR_BRAND     : isom
    MINOR_VERSION   : 512
    encoder         : Lavf61.7.100
  Stream #0:0: Video: wrapped_avframe, yuv420p10le(tv, bt709, progressive), 1920x1080 [SAR 1:1 DAR 16:9], q=2-31, 200 kb/s, 23.98 fps, 23.98 tbn
      Metadata:
        encoder         : Lavc61.19.100 wrapped_avframe
  Stream #0:1: Audio: pcm_s16le, 48000 Hz, stereo, s16, 1536 kb/s (default)
      Metadata:
        HANDLER_NAME    : SoundHandler
        VENDOR_ID       : [0][0][0][0]
        _STATISTICS_TAGS: BPS DURATION NUMBER_OF_FRAMES NUMBER_OF_BYTES
        BPS             : 193194
        DURATION        : 00:24:06.784000000
        NUMBER_OF_FRAMES: 67819
        NUMBER_OF_BYTES : 34938755
        _STATISTICS_WRITING_APP: mkvpropedit v94.0 ('Initiate') 64-bit
        _STATISTICS_WRITING_DATE_UTC: 2026-03-31 07:31:26
        encoder         : Lavc61.19.100 pcm_s16le
frame=  115 fps=0.0 q=-0.0 size=N/A time=00:00:04.79 bitrate=N/A speed=9.43x    frame=  294 fps=288 q=-0.0 size=N/A time=00:00:12.26 bitrate=N/A speed=  12x    frame=  476 fps=307 q=-0.0 size=N/A time=00:00:19.85 bitrate=N/A speed=12.8x    frame=  664 fps=322 q=-0.0 size=N/A time=00:00:27.69 bitrate=N/A speed=13.5x    frame=  848 fps=330 q=-0.0 size=N/A time=00:00:35.36 bitrate=N/A speed=13.8x    frame=  993 fps=322 q=-0.0 size=N/A time=00:00:41.41 bitrate=N/A speed=13.4x    frame= 1160 fps=321 q=-0.0 size=N/A time=00:00:48.38 bitrate=N/A speed=13.4x    frame= 1318 fps=320 q=-0.0 size=N/A time=00:00:54.97 bitrate=N/A speed=13.3x    frame= 1481 fps=320 q=-0.0 size=N/A time=00:01:01.77 bitrate=N/A speed=13.3x    frame= 1622 fps=315 q=-0.0 size=N/A time=00:01:07.65 bitrate=N/A speed=13.1x    frame= 1778 fps=313 q=-0.0 size=N/A time=00:01:14.15 bitrate=N/A speed=13.1x    frame= 1934 fps=313 q=-0.0 size=N/A time=00:01:20.66 bitrate=N/A speed=  13x    frame= 2066 fps=309 q=-0.0 size=N/A time=00:01:26.16 bitrate=N/A speed=12.9x    frame= 2159 fps=300 q=-0.0 size=N/A time=00:01:30.04 bitrate=N/A speed=12.5x    frame= 2320 fps=300 q=-0.0 size=N/A time=00:01:36.76 bitrate=N/A speed=12.5x    frame= 2458 fps=298 q=-0.0 size=N/A time=00:01:42.51 bitrate=N/A speed=12.4x    frame= 2595 fps=296 q=-0.0 size=N/A time=00:01:48.23 bitrate=N/A speed=12.4x    frame= 2774 fps=299 q=-0.0 size=N/A time=00:01:55.69 bitrate=N/A speed=12.5x    frame= 2952 fps=301 q=-0.0 size=N/A time=00:02:03.12 bitrate=N/A speed=12.6x    frame= 3134 fps=304 q=-0.0 size=N/A time=00:02:10.71 bitrate=N/A speed=12.7x    frame= 3316 fps=306 q=-0.0 size=N/A time=00:02:18.30 bitrate=N/A speed=12.8x    frame= 3502 fps=309 q=-0.0 size=N/A time=00:02:26.06 bitrate=N/A speed=12.9x    frame= 3691 fps=311 q=-0.0 size=N/A time=00:02:33.94 bitrate=N/A speed=  13x    frame= 3876 fps=313 q=-0.0 size=N/A time=00:02:41.66 bitrate=N/A speed=13.1x    frame= 4034 fps=313 q=-0.0 size=N/A time=00:02:48.25 bitrate=N/A speed=13.1x    frame= 4213 fps=315 q=-0.0 size=N/A time=00:02:55.71 bitrate=N/A speed=13.1x    frame= 4400 fps=316 q=-0.0 size=N/A time=00:03:03.51 bitrate=N/A speed=13.2x    frame= 4585 fps=318 q=-0.0 size=N/A time=00:03:11.23 bitrate=N/A speed=13.2x    frame= 4769 fps=319 q=-0.0 size=N/A time=00:03:18.90 bitrate=N/A speed=13.3x    frame= 4947 fps=320 q=-0.0 size=N/A time=00:03:26.33 bitrate=N/A speed=13.3x    frame= 5145 fps=322 q=-0.0 size=N/A time=00:03:34.58 bitrate=N/A speed=13.4x    frame= 5332 fps=323 q=-0.0 size=N/A time=00:03:42.38 bitrate=N/A speed=13.5x    frame= 5516 fps=324 q=-0.0 size=N/A time=00:03:50.06 bitrate=N/A speed=13.5x    frame= 5706 fps=325 q=-0.0 size=N/A time=00:03:57.98 bitrate=N/A speed=13.6x    frame= 5902 fps=327 q=-0.0 size=N/A time=00:04:06.16 bitrate=N/A speed=13.6x    frame= 6073 fps=327 q=-0.0 size=N/A time=00:04:13.29 bitrate=N/A speed=13.6x    frame= 6252 fps=328 q=-0.0 size=N/A time=00:04:20.76 bitrate=N/A speed=13.7x    frame= 6429 fps=328 q=-0.0 size=N/A time=00:04:28.14 bitrate=N/A speed=13.7x    frame= 6612 fps=329 q=-0.0 size=N/A time=00:04:35.77 bitrate=N/A speed=13.7x    frame= 6787 fps=329 q=-0.0 size=N/A time=00:04:43.07 bitrate=N/A speed=13.7x    frame= 6957 fps=329 q=-0.0 size=N/A time=00:04:50.16 bitrate=N/A speed=13.7x    frame= 7134 fps=329 q=-0.0 size=N/A time=00:04:57.54 bitrate=N/A speed=13.7x    frame= 7310 fps=330 q=-0.0 size=N/A time=00:05:04.88 bitrate=N/A speed=13.7x    frame= 7487 fps=330 q=-0.0 size=N/A time=00:05:12.27 bitrate=N/A speed=13.8x    frame= 7647 fps=329 q=-0.0 size=N/A time=00:05:18.94 bitrate=N/A speed=13.7x    frame= 7825 fps=330 q=-0.0 size=N/A time=00:05:26.36 bitrate=N/A speed=13.8x    frame= 7998 fps=330 q=-0.0 size=N/A time=00:05:33.58 bitrate=N/A speed=13.8x    frame= 8174 fps=330 q=-0.0 size=N/A time=00:05:40.92 bitrate=N/A speed=13.8x    frame= 8351 fps=330 q=-0.0 size=N/A time=00:05:48.30 bitrate=N/A speed=13.8x    frame= 8511 fps=330 q=-0.0 size=N/A time=00:05:54.97 bitrate=N/A speed=13.8x    frame= 8692 fps=330 q=-0.0 size=N/A time=00:06:02.52 bitrate=N/A speed=13.8x    frame= 8840 fps=330 q=-0.0 size=N/A time=00:06:08.70 bitrate=N/A speed=13.7x    frame= 8991 fps=329 q=-0.0 size=N/A time=00:06:14.99 bitrate=N/A speed=13.7x    frame= 9162 fps=329 q=-0.0 size=N/A time=00:06:22.13 bitrate=N/A speed=13.7x    frame= 9325 fps=329 q=-0.0 size=N/A time=00:06:28.93 bitrate=N/A speed=13.7x    frame= 9505 fps=329 q=-0.0 size=N/A time=00:06:36.43 bitrate=N/A speed=13.7x    frame= 9682 fps=329 q=-0.0 size=N/A time=00:06:43.82 bitrate=N/A speed=13.7x    frame= 9869 fps=330 q=-0.0 size=N/A time=00:06:51.61 bitrate=N/A speed=13.8x    frame=10048 fps=330 q=-0.0 size=N/A time=00:06:59.08 bitrate=N/A speed=13.8x    frame=10203 fps=330 q=-0.0 size=N/A time=00:07:05.55 bitrate=N/A speed=13.8x    frame=10357 fps=329 q=-0.0 size=N/A time=00:07:11.97 bitrate=N/A speed=13.7x    frame=10513 fps=329 q=-0.0 size=N/A time=00:07:18.47 bitrate=N/A speed=13.7x    frame=10657 fps=328 q=-0.0 size=N/A time=00:07:24.48 bitrate=N/A speed=13.7x    frame=10800 fps=327 q=-0.0 size=N/A time=00:07:30.45 bitrate=N/A speed=13.6x    frame=10935 fps=326 q=-0.0 size=N/A time=00:07:36.08 bitrate=N/A speed=13.6x    frame=11065 fps=325 q=-0.0 size=N/A time=00:07:41.50 bitrate=N/A speed=13.6x    frame=11228 fps=325 q=-0.0 size=N/A time=00:07:48.30 bitrate=N/A speed=13.5x    frame=11400 fps=325 q=-0.0 size=N/A time=00:07:55.47 bitrate=N/A speed=13.5x    frame=11565 fps=325 q=-0.0 size=N/A time=00:08:02.35 bitrate=N/A speed=13.5x    frame=11752 fps=325 q=-0.0 size=N/A time=00:08:10.15 bitrate=N/A speed=13.6x    frame=11930 fps=326 q=-0.0 size=N/A time=00:08:17.58 bitrate=N/A speed=13.6x    frame=12114 fps=326 q=-0.0 size=N/A time=00:08:25.25 bitrate=N/A speed=13.6x    frame=12301 fps=327 q=-0.0 size=N/A time=00:08:33.05 bitrate=N/A speed=13.6x    frame=12484 fps=327 q=-0.0 size=N/A time=00:08:40.68 bitrate=N/A speed=13.6x    frame=12652 fps=327 q=-0.0 size=N/A time=00:08:47.69 bitrate=N/A speed=13.6x    frame=12831 fps=327 q=-0.0 size=N/A time=00:08:55.15 bitrate=N/A speed=13.6x    frame=12998 fps=327 q=-0.0 size=N/A time=00:09:02.12 bitrate=N/A speed=13.6x    frame=13175 fps=327 q=-0.0 size=N/A time=00:09:09.50 bitrate=N/A speed=13.7x    frame=13358 fps=328 q=-0.0 size=N/A time=00:09:17.13 bitrate=N/A speed=13.7x    frame=13533 fps=328 q=-0.0 size=N/A time=00:09:24.43 bitrate=N/A speed=13.7x    frame=13716 fps=328 q=-0.0 size=N/A time=00:09:32.07 bitrate=N/A speed=13.7x    frame=13899 fps=328 q=-0.0 size=N/A time=00:09:39.70 bitrate=N/A speed=13.7x    frame=14080 fps=329 q=-0.0 size=N/A time=00:09:47.25 bitrate=N/A speed=13.7x    frame=14257 fps=329 q=-0.0 size=N/A time=00:09:54.63 bitrate=N/A speed=13.7x    frame=14443 fps=329 q=-0.0 size=N/A time=00:10:02.39 bitrate=N/A speed=13.7x    frame=14625 fps=330 q=-0.0 size=N/A time=00:10:09.98 bitrate=N/A speed=13.7x    frame=14807 fps=330 q=-0.0 size=N/A time=00:10:17.57 bitrate=N/A speed=13.8x    frame=15000 fps=330 q=-0.0 size=N/A time=00:10:25.62 bitrate=N/A speed=13.8x    frame=15166 fps=330 q=-0.0 size=N/A time=00:10:32.54 bitrate=N/A speed=13.8x    frame=15346 fps=331 q=-0.0 size=N/A time=00:10:40.05 bitrate=N/A speed=13.8x    frame=15528 fps=331 q=-0.0 size=N/A time=00:10:47.64 bitrate=N/A speed=13.8x    frame=15723 fps=331 q=-0.0 size=N/A time=00:10:55.78 bitrate=N/A speed=13.8x    frame=15910 fps=332 q=-0.0 size=N/A time=00:11:03.57 bitrate=N/A speed=13.8x    frame=16091 fps=332 q=-0.0 size=N/A time=00:11:11.12 bitrate=N/A speed=13.8x    frame=16283 fps=332 q=-0.0 size=N/A time=00:11:19.13 bitrate=N/A speed=13.9x    frame=16466 fps=333 q=-0.0 size=N/A time=00:11:26.76 bitrate=N/A speed=13.9x    frame=16664 fps=333 q=-0.0 size=N/A time=00:11:35.02 bitrate=N/A speed=13.9x    frame=16853 fps=333 q=-0.0 size=N/A time=00:11:42.91 bitrate=N/A speed=13.9x    frame=17039 fps=334 q=-0.0 size=N/A time=00:11:50.66 bitrate=N/A speed=13.9x    frame=17229 fps=334 q=-0.0 size=N/A time=00:11:58.59 bitrate=N/A speed=13.9x    frame=17412 fps=334 q=-0.0 size=N/A time=00:12:06.22 bitrate=N/A speed=13.9x    frame=17594 fps=334 q=-0.0 size=N/A time=00:12:13.81 bitrate=N/A speed=13.9x    frame=17773 fps=335 q=-0.0 size=N/A time=00:12:21.28 bitrate=N/A speed=  14x    frame=17953 fps=335 q=-0.0 size=N/A time=00:12:28.78 bitrate=N/A speed=  14x    frame=18146 fps=335 q=-0.0 size=N/A time=00:12:36.83 bitrate=N/A speed=  14x    frame=18328 fps=335 q=-0.0 size=N/A time=00:12:44.43 bitrate=N/A speed=  14x    frame=18506 fps=335 q=-0.0 size=N/A time=00:12:51.85 bitrate=N/A speed=  14x    frame=18696 fps=336 q=-0.0 size=N/A time=00:12:59.77 bitrate=N/A speed=  14x    frame=18893 fps=336 q=-0.0 size=N/A time=00:13:07.99 bitrate=N/A speed=  14x    frame=19077 fps=336 q=-0.0 size=N/A time=00:13:15.66 bitrate=N/A speed=  14x    frame=19267 fps=336 q=-0.0 size=N/A time=00:13:23.59 bitrate=N/A speed=  14x    frame=19455 fps=337 q=-0.0 size=N/A time=00:13:31.43 bitrate=N/A speed=  14x    frame=19637 fps=337 q=-0.0 size=N/A time=00:13:39.02 bitrate=N/A speed=  14x    frame=19822 fps=337 q=-0.0 size=N/A time=00:13:46.74 bitrate=N/A speed=14.1x    frame=20011 fps=337 q=-0.0 size=N/A time=00:13:54.62 bitrate=N/A speed=14.1x    frame=20189 fps=337 q=-0.0 size=N/A time=00:14:02.04 bitrate=N/A speed=14.1x    frame=20361 fps=337 q=-0.0 size=N/A time=00:14:09.22 bitrate=N/A speed=14.1x    frame=20531 fps=337 q=-0.0 size=N/A time=00:14:16.31 bitrate=N/A speed=14.1x    frame=20698 fps=337 q=-0.0 size=N/A time=00:14:23.27 bitrate=N/A speed=14.1x    frame=20887 fps=337 q=-0.0 size=N/A time=00:14:31.16 bitrate=N/A speed=14.1x    frame=21075 fps=338 q=-0.0 size=N/A time=00:14:39.00 bitrate=N/A speed=14.1x    frame=21257 fps=338 q=-0.0 size=N/A time=00:14:46.59 bitrate=N/A speed=14.1x    frame=21445 fps=338 q=-0.0 size=N/A time=00:14:54.43 bitrate=N/A speed=14.1x    frame=21632 fps=338 q=-0.0 size=N/A time=00:15:02.23 bitrate=N/A speed=14.1x    frame=21820 fps=338 q=-0.0 size=N/A time=00:15:10.07 bitrate=N/A speed=14.1x    frame=22006 fps=339 q=-0.0 size=N/A time=00:15:17.83 bitrate=N/A speed=14.1x    frame=22186 fps=339 q=-0.0 size=N/A time=00:15:25.34 bitrate=N/A speed=14.1x    frame=22381 fps=339 q=-0.0 size=N/A time=00:15:33.47 bitrate=N/A speed=14.1x    frame=22564 fps=339 q=-0.0 size=N/A time=00:15:41.10 bitrate=N/A speed=14.1x    frame=22739 fps=339 q=-0.0 size=N/A time=00:15:48.40 bitrate=N/A speed=14.1x    frame=22915 fps=339 q=-0.0 size=N/A time=00:15:55.74 bitrate=N/A speed=14.1x    frame=23101 fps=339 q=-0.0 size=N/A time=00:16:03.50 bitrate=N/A speed=14.1x    frame=23272 fps=339 q=-0.0 size=N/A time=00:16:10.63 bitrate=N/A speed=14.1x    frame=23452 fps=339 q=-0.0 size=N/A time=00:16:18.14 bitrate=N/A speed=14.2x    frame=23641 fps=340 q=-0.0 size=N/A time=00:16:26.02 bitrate=N/A speed=14.2x    frame=23831 fps=340 q=-0.0 size=N/A time=00:16:33.95 bitrate=N/A speed=14.2x    frame=24013 fps=340 q=-0.0 size=N/A time=00:16:41.54 bitrate=N/A speed=14.2x    frame=24199 fps=340 q=-0.0 size=N/A time=00:16:49.29 bitrate=N/A speed=14.2x    frame=24379 fps=340 q=-0.0 size=N/A time=00:16:56.80 bitrate=N/A speed=14.2x    frame=24568 fps=340 q=-0.0 size=N/A time=00:17:04.69 bitrate=N/A speed=14.2x    frame=24745 fps=340 q=-0.0 size=N/A time=00:17:12.07 bitrate=N/A speed=14.2x    frame=24919 fps=340 q=-0.0 size=N/A time=00:17:19.32 bitrate=N/A speed=14.2x    frame=25109 fps=340 q=-0.0 size=N/A time=00:17:27.25 bitrate=N/A speed=14.2x    frame=25288 fps=340 q=-0.0 size=N/A time=00:17:34.72 bitrate=N/A speed=14.2x    frame=25470 fps=341 q=-0.0 size=N/A time=00:17:42.31 bitrate=N/A speed=14.2x    frame=25661 fps=341 q=-0.0 size=N/A time=00:17:50.27 bitrate=N/A speed=14.2x    frame=25843 fps=341 q=-0.0 size=N/A time=00:17:57.86 bitrate=N/A speed=14.2x    frame=26031 fps=341 q=-0.0 size=N/A time=00:18:05.70 bitrate=N/A speed=14.2x    frame=26207 fps=341 q=-0.0 size=N/A time=00:18:13.05 bitrate=N/A speed=14.2x    frame=26389 fps=341 q=-0.0 size=N/A time=00:18:20.64 bitrate=N/A speed=14.2x    frame=26583 fps=341 q=-0.0 size=N/A time=00:18:28.73 bitrate=N/A speed=14.2x    frame=26768 fps=341 q=-0.0 size=N/A time=00:18:36.44 bitrate=N/A speed=14.2x    frame=26946 fps=341 q=-0.0 size=N/A time=00:18:43.87 bitrate=N/A speed=14.2x    frame=27114 fps=341 q=-0.0 size=N/A time=00:18:50.87 bitrate=N/A speed=14.2x    frame=27307 fps=342 q=-0.0 size=N/A time=00:18:58.92 bitrate=N/A speed=14.2x    frame=27487 fps=342 q=-0.0 size=N/A time=00:19:06.43 bitrate=N/A speed=14.2x    frame=27671 fps=342 q=-0.0 size=N/A time=00:19:14.11 bitrate=N/A speed=14.3x    frame=27863 fps=342 q=-0.0 size=N/A time=00:19:22.11 bitrate=N/A speed=14.3x    frame=28045 fps=342 q=-0.0 size=N/A time=00:19:29.71 bitrate=N/A speed=14.3x    frame=28227 fps=342 q=-0.0 size=N/A time=00:19:37.30 bitrate=N/A speed=14.3x    frame=28424 fps=342 q=-0.0 size=N/A time=00:19:45.51 bitrate=N/A speed=14.3x    frame=28612 fps=342 q=-0.0 size=N/A time=00:19:53.35 bitrate=N/A speed=14.3x    frame=28787 fps=342 q=-0.0 size=N/A time=00:20:00.65 bitrate=N/A speed=14.3x    frame=28962 fps=342 q=-0.0 size=N/A time=00:20:07.95 bitrate=N/A speed=14.3x    frame=29137 fps=342 q=-0.0 size=N/A time=00:20:15.25 bitrate=N/A speed=14.3x    frame=29314 fps=342 q=-0.0 size=N/A time=00:20:22.63 bitrate=N/A speed=14.3x    frame=29492 fps=342 q=-0.0 size=N/A time=00:20:30.06 bitrate=N/A speed=14.3x    frame=29672 fps=342 q=-0.0 size=N/A time=00:20:37.56 bitrate=N/A speed=14.3x    frame=29847 fps=342 q=-0.0 size=N/A time=00:20:44.86 bitrate=N/A speed=14.3x    frame=30010 fps=342 q=-0.0 size=N/A time=00:20:51.66 bitrate=N/A speed=14.3x    frame=30182 fps=342 q=-0.0 size=N/A time=00:20:58.84 bitrate=N/A speed=14.3x    frame=30368 fps=342 q=-0.0 size=N/A time=00:21:06.59 bitrate=N/A speed=14.3x    frame=30553 fps=342 q=-0.0 size=N/A time=00:21:14.31 bitrate=N/A speed=14.3x    frame=30733 fps=342 q=-0.0 size=N/A time=00:21:21.82 bitrate=N/A speed=14.3x    frame=30924 fps=343 q=-0.0 size=N/A time=00:21:29.78 bitrate=N/A speed=14.3x    frame=31112 fps=343 q=-0.0 size=N/A time=00:21:37.62 bitrate=N/A speed=14.3x    frame=31295 fps=343 q=-0.0 size=N/A time=00:21:45.26 bitrate=N/A speed=14.3x    frame=31472 fps=343 q=-0.0 size=N/A time=00:21:52.64 bitrate=N/A speed=14.3x    frame=31654 fps=343 q=-0.0 size=N/A time=00:22:00.23 bitrate=N/A speed=14.3x    frame=31833 fps=343 q=-0.0 size=N/A time=00:22:07.70 bitrate=N/A speed=14.3x    frame=32012 fps=343 q=-0.0 size=N/A time=00:22:15.16 bitrate=N/A speed=14.3x    frame=32201 fps=343 q=-0.0 size=N/A time=00:22:23.05 bitrate=N/A speed=14.3x    frame=32394 fps=343 q=-0.0 size=N/A time=00:22:31.09 bitrate=N/A speed=14.3x    frame=32577 fps=343 q=-0.0 size=N/A time=00:22:38.73 bitrate=N/A speed=14.3x    frame=32731 fps=343 q=-0.0 size=N/A time=00:22:45.15 bitrate=N/A speed=14.3x    frame=32895 fps=343 q=-0.0 size=N/A time=00:22:51.99 bitrate=N/A speed=14.3x    frame=33073 fps=343 q=-0.0 size=N/A time=00:22:59.41 bitrate=N/A speed=14.3x    frame=33259 fps=343 q=-0.0 size=N/A time=00:23:07.17 bitrate=N/A speed=14.3x    frame=33425 fps=343 q=-0.0 size=N/A time=00:23:14.10 bitrate=N/A speed=14.3x    frame=33578 fps=343 q=-0.0 size=N/A time=00:23:20.48 bitrate=N/A speed=14.3x    frame=33735 fps=342 q=-0.0 size=N/A time=00:23:27.03 bitrate=N/A speed=14.3x    frame=33858 fps=342 q=-0.0 size=N/A time=00:23:32.16 bitrate=N/A speed=14.3x    frame=34013 fps=342 q=-0.0 size=N/A time=00:23:38.62 bitrate=N/A speed=14.2x    frame=34181 fps=341 q=-0.0 size=N/A time=00:23:45.63 bitrate=N/A speed=14.2x    frame=34324 fps=341 q=-0.0 size=N/A time=00:23:51.59 bitrate=N/A speed=14.2x    frame=34458 fps=341 q=-0.0 size=N/A time=00:23:57.18 bitrate=N/A speed=14.2x    frame=34638 fps=341 q=-0.0 size=N/A time=00:24:04.69 bitrate=N/A speed=14.2x    [Parsed_ssim_16 @ 000002a5b49e9880] SSIM Y:0.993857 (22.116272) U:0.993932 (22.169570) V:0.993538 (21.896120) All:0.993816 (22.087558)
[out#0/null @ 000002a5a7ccdec0] video:14903KiB audio:271276KiB subtitle:0KiB other streams:0KiB global headers:0KiB muxing overhead: unknown
frame=34683 fps=341 q=-0.0 Lsize=N/A time=00:24:06.57 bitrate=N/A speed=14.2x    
